<svg xmlns="http://www.w3.org/2000/svg" xmlns:xlink="http://www.w3.org/1999/xlink" width="1920" zoomAndPan="magnify" viewBox="0 0 1440 809.999993" height="1080" preserveAspectRatio="xMidYMid meet" version="1.0"><defs><clipPath id="3fa92155f3"><path d="M 543 182 L 920 182 L 920 603 L 543 603 Z M 543 182 " clip-rule="nonzero"/></clipPath><clipPath id="9ebacc9f2a"><path d="M 454.796875 260.25 L 890.496094 141.839844 L 1001.433594 550.03125 L 565.738281 668.445312 Z M 454.796875 260.25 " clip-rule="nonzero"/></clipPath><clipPath id="9f7a128a4f"><path d="M 454.796875 260.25 L 890.496094 141.839844 L 1001.433594 550.03125 L 565.738281 668.445312 Z M 454.796875 260.25 " clip-rule="nonzero"/></clipPath><clipPath id="539b6e097f"><path d="M 632 117 L 856 117 L 856 370 L 632 370 Z M 632 117 " clip-rule="nonzero"/></clipPath><clipPath id="ad1d0d2195"><path d="M 624.019531 217.464844 L 782.496094 111.75 L 888.210938 270.226562 L 729.734375 375.941406 Z M 624.019531 217.464844 " clip-rule="nonzero"/></clipPath><clipPath id="35fefcd062"><path d="M 624.019531 217.464844 L 782.496094 111.75 L 888.210938 270.226562 L 729.734375 375.941406 Z M 624.019531 217.464844 " clip-rule="nonzero"/></clipPath></defs><g clip-path="url(#3fa92155f3)"><g clip-path="url(#9ebacc9f2a)"><g clip-path="url(#9f7a128a4f)"><path fill="#737373" d="M 734.28125 223.007812 L 748.761719 183.625 L 739.089844 182.988281 L 713.394531 223.554688 C 702.109375 224.460938 690.671875 226.378906 679.210938 229.453125 C 666.773438 233 671.785156 251.441406 684.308594 248.207031 C 693.785156 245.632812 703.476562 243.847656 713.222656 242.894531 L 732.136719 284.398438 L 741.820312 285.074219 L 732.4375 242.125 C 755.957031 242.390625 779.421875 247.292969 801.070312 256.886719 C 934.226562 317.460938 938.378906 503.585938 809.011719 571.3125 C 676.164062 637.945312 526.566406 523.746094 555.082031 378.101562 C 559.199219 357.984375 566.863281 338.601562 577.425781 320.976562 C 578.421875 319.347656 577.921875 317.191406 576.285156 316.152344 C 574.644531 315.117188 572.460938 315.667969 571.464844 317.292969 C 548.816406 353.640625 538.980469 397.953125 544.980469 440.464844 C 560.65625 560.40625 687.574219 634.210938 799.867188 589.316406 C 855.753906 567.46875 899.328125 517.632812 913.683594 459.203125 C 943.644531 337.757812 850.371094 226.566406 734.28125 223.007812 Z M 734.28125 223.007812 " fill-opacity="1" fill-rule="nonzero"/></g></g></g><g clip-path="url(#539b6e097f)"><g clip-path="url(#ad1d0d2195)"><g clip-path="url(#35fefcd062)"><path fill="#735e59" d="M 839.457031 302.40625 L 832.292969 300.976562 C 826.191406 290.792969 820.78125 280.207031 815.246094 269.710938 C 792.078125 267.121094 768.796875 264.667969 745.851562 260.425781 L 733.339844 369.703125 L 724.386719 367.914062 C 721.863281 352.015625 719.988281 336.027344 717.980469 320.0625 L 710.9375 318.652344 C 708.460938 318.164062 706.855469 315.753906 707.351562 313.28125 C 707.847656 310.808594 710.253906 309.203125 712.722656 309.699219 L 716.777344 310.507812 L 714.515625 291.429688 L 707.34375 289.996094 C 704.871094 289.503906 703.265625 287.097656 703.757812 284.621094 C 704.253906 282.148438 706.660156 280.542969 709.132812 281.035156 L 713.382812 281.886719 C 712.40625 274.636719 711.78125 267.34375 710.816406 260.089844 C 709.910156 253.273438 709.898438 257.074219 710.023438 253.269531 C 691.90625 249.351562 673.710938 245.503906 656.011719 239.945312 C 650.316406 238.15625 642.621094 236.230469 637.867188 232.082031 C 634.621094 228.71875 632.019531 224.082031 632.984375 219.257812 C 633.945312 214.429688 638.128906 211.148438 642.417969 209.292969 C 651.8125 205.21875 708.222656 215.648438 717.175781 217.4375 C 726.414062 200.648438 721.789062 209.039062 731.0625 192.269531 L 727.023438 191.464844 C 724.546875 190.96875 722.941406 188.5625 723.4375 186.085938 C 723.933594 183.617188 726.335938 182.011719 728.8125 182.503906 L 735.722656 183.886719 L 745.101562 167.128906 L 741.34375 166.378906 C 738.871094 165.886719 737.265625 163.480469 737.761719 161.007812 C 738.253906 158.53125 740.660156 156.925781 743.132812 157.425781 L 749.796875 158.75 L 749.875 158.609375 C 757.695312 144.519531 765.628906 130.558594 774.472656 117.105469 L 783.429688 118.898438 C 774.003906 151.300781 773.660156 152.808594 763.902344 185.113281 C 759.945312 198.203125 755.664062 211.15625 752.964844 224.589844 C 775.523438 229.9375 797.859375 236.203125 820.003906 243.0625 C 829.558594 235.699219 838.0625 226.683594 848.390625 220.359375 L 855.558594 221.789062 C 852.105469 231.671875 846.359375 240.664062 842.742188 250.464844 C 840.867188 255.550781 840.242188 261.132812 839.195312 266.421875 L 839.457031 302.40625 " fill-opacity="1" fill-rule="nonzero"/></g></g></g></svg>